<svg id="visual" viewBox="0 0 1920 100" width="1920" height="100" xmlns="http://www.w3.org/2000/svg" xmlns:xlink="http://www.w3.org/1999/xlink" version="1.1"><rect x="0" y="0" width="1920" height="100" fill="#222"></rect><path d="M0 47L13.8 48.2C27.7 49.3 55.3 51.7 83.2 52.8C111 54 139 54 166.8 54.5C194.7 55 222.3 56 250.2 56C278 56 306 55 333.8 57C361.7 59 389.3 64 417.2 65.5C445 67 473 65 500.8 62C528.7 59 556.3 55 584.2 52.8C612 50.7 640 50.3 667.8 51.8C695.7 53.3 723.3 56.7 751.2 58.8C779 61 807 62 834.8 63C862.7 64 890.3 65 918.2 65.8C946 66.7 974 67.3 1001.8 66.8C1029.7 66.3 1057.3 64.7 1085.2 62.5C1113 60.3 1141 57.7 1168.8 58.3C1196.7 59 1224.3 63 1252.2 63C1280 63 1308 59 1335.8 56.3C1363.7 53.7 1391.3 52.3 1419.2 54.3C1447 56.3 1475 61.7 1502.8 64.3C1530.7 67 1558.3 67 1586.2 66.5C1614 66 1642 65 1669.8 62.2C1697.7 59.3 1725.3 54.7 1753.2 53.3C1781 52 1809 54 1836.8 57C1864.7 60 1892.3 64 1906.2 66L1920 68L1920 0L1906.2 0C1892.3 0 1864.7 0 1836.8 0C1809 0 1781 0 1753.2 0C1725.3 0 1697.7 0 1669.8 0C1642 0 1614 0 1586.2 0C1558.3 0 1530.7 0 1502.8 0C1475 0 1447 0 1419.2 0C1391.3 0 1363.7 0 1335.8 0C1308 0 1280 0 1252.2 0C1224.3 0 1196.7 0 1168.8 0C1141 0 1113 0 1085.2 0C1057.3 0 1029.7 0 1001.8 0C974 0 946 0 918.2 0C890.3 0 862.7 0 834.8 0C807 0 779 0 751.2 0C723.3 0 695.7 0 667.8 0C640 0 612 0 584.2 0C556.3 0 528.7 0 500.8 0C473 0 445 0 417.2 0C389.3 0 361.7 0 333.8 0C306 0 278 0 250.2 0C222.3 0 194.7 0 166.8 0C139 0 111 0 83.2 0C55.3 0 27.7 0 13.8 0L0 0Z" fill="#76fa69"></path><path d="M0 39L13.8 39.5C27.7 40 55.3 41 83.2 41.8C111 42.7 139 43.3 166.8 45.3C194.7 47.3 222.3 50.7 250.2 49C278 47.3 306 40.7 333.8 39.8C361.7 39 389.3 44 417.2 46.5C445 49 473 49 500.8 47.3C528.7 45.7 556.3 42.3 584.2 42.8C612 43.3 640 47.7 667.8 48.7C695.7 49.7 723.3 47.3 751.2 46.3C779 45.3 807 45.7 834.8 47C862.7 48.3 890.3 50.7 918.2 49.5C946 48.3 974 43.7 1001.8 42.3C1029.7 41 1057.3 43 1085.2 42.8C1113 42.7 1141 40.3 1168.8 40.7C1196.7 41 1224.3 44 1252.2 47C1280 50 1308 53 1335.8 51.2C1363.7 49.3 1391.3 42.7 1419.2 41.7C1447 40.7 1475 45.3 1502.8 48.5C1530.7 51.7 1558.3 53.3 1586.2 51.7C1614 50 1642 45 1669.8 44.3C1697.7 43.7 1725.3 47.3 1753.2 48.7C1781 50 1809 49 1836.8 46.5C1864.7 44 1892.3 40 1906.2 38L1920 36L1920 0L1906.2 0C1892.3 0 1864.7 0 1836.8 0C1809 0 1781 0 1753.2 0C1725.3 0 1697.7 0 1669.8 0C1642 0 1614 0 1586.2 0C1558.3 0 1530.7 0 1502.8 0C1475 0 1447 0 1419.2 0C1391.3 0 1363.7 0 1335.8 0C1308 0 1280 0 1252.2 0C1224.3 0 1196.7 0 1168.8 0C1141 0 1113 0 1085.2 0C1057.3 0 1029.7 0 1001.8 0C974 0 946 0 918.2 0C890.3 0 862.7 0 834.8 0C807 0 779 0 751.2 0C723.3 0 695.7 0 667.8 0C640 0 612 0 584.2 0C556.3 0 528.7 0 500.8 0C473 0 445 0 417.2 0C389.3 0 361.7 0 333.8 0C306 0 278 0 250.2 0C222.3 0 194.7 0 166.8 0C139 0 111 0 83.2 0C55.3 0 27.7 0 13.8 0L0 0Z" fill="#49ef88"></path><path d="M0 23L13.8 24.8C27.7 26.7 55.3 30.3 83.2 30.5C111 30.7 139 27.3 166.8 28.5C194.7 29.7 222.3 35.3 250.2 37.2C278 39 306 37 333.8 34C361.7 31 389.3 27 417.2 28.7C445 30.3 473 37.7 500.8 38.7C528.7 39.7 556.3 34.3 584.2 33.2C612 32 640 35 667.8 36.7C695.7 38.3 723.3 38.7 751.2 39.2C779 39.7 807 40.3 834.8 39.8C862.7 39.3 890.3 37.7 918.2 36.2C946 34.7 974 33.3 1001.8 34.7C1029.7 36 1057.3 40 1085.2 40.7C1113 41.3 1141 38.7 1168.8 35.7C1196.7 32.7 1224.3 29.3 1252.2 30.5C1280 31.7 1308 37.3 1335.8 37.2C1363.7 37 1391.3 31 1419.2 27.8C1447 24.7 1475 24.3 1502.8 24.5C1530.7 24.7 1558.3 25.3 1586.2 26.2C1614 27 1642 28 1669.8 30.7C1697.7 33.3 1725.3 37.7 1753.2 37.3C1781 37 1809 32 1836.8 32.5C1864.7 33 1892.3 39 1906.2 42L1920 45L1920 0L1906.2 0C1892.3 0 1864.7 0 1836.8 0C1809 0 1781 0 1753.2 0C1725.3 0 1697.7 0 1669.8 0C1642 0 1614 0 1586.2 0C1558.3 0 1530.7 0 1502.8 0C1475 0 1447 0 1419.2 0C1391.3 0 1363.7 0 1335.8 0C1308 0 1280 0 1252.2 0C1224.3 0 1196.7 0 1168.8 0C1141 0 1113 0 1085.2 0C1057.3 0 1029.7 0 1001.8 0C974 0 946 0 918.2 0C890.3 0 862.7 0 834.8 0C807 0 779 0 751.2 0C723.3 0 695.7 0 667.8 0C640 0 612 0 584.2 0C556.3 0 528.7 0 500.8 0C473 0 445 0 417.2 0C389.3 0 361.7 0 333.8 0C306 0 278 0 250.2 0C222.3 0 194.7 0 166.8 0C139 0 111 0 83.2 0C55.3 0 27.7 0 13.8 0L0 0Z" fill="#17e3a0"></path><path d="M0 23L13.8 21.2C27.7 19.3 55.3 15.7 83.2 15.2C111 14.7 139 17.3 166.8 19.3C194.7 21.3 222.3 22.7 250.2 23.3C278 24 306 24 333.8 23.2C361.7 22.3 389.3 20.7 417.2 19.7C445 18.7 473 18.3 500.8 17.2C528.7 16 556.3 14 584.2 15.3C612 16.7 640 21.3 667.8 22C695.7 22.7 723.3 19.3 751.2 19C779 18.7 807 21.3 834.8 24C862.7 26.7 890.3 29.3 918.2 30.3C946 31.3 974 30.7 1001.8 29.3C1029.7 28 1057.3 26 1085.2 26.2C1113 26.3 1141 28.7 1168.8 28.3C1196.7 28 1224.3 25 1252.2 21.7C1280 18.3 1308 14.7 1335.8 16.2C1363.7 17.7 1391.3 24.3 1419.2 26.2C1447 28 1475 25 1502.8 22.5C1530.7 20 1558.3 18 1586.2 18.8C1614 19.7 1642 23.3 1669.8 24.7C1697.7 26 1725.3 25 1753.2 24.8C1781 24.7 1809 25.3 1836.8 26.2C1864.7 27 1892.3 28 1906.2 28.5L1920 29L1920 0L1906.2 0C1892.3 0 1864.7 0 1836.8 0C1809 0 1781 0 1753.2 0C1725.3 0 1697.7 0 1669.8 0C1642 0 1614 0 1586.2 0C1558.3 0 1530.7 0 1502.8 0C1475 0 1447 0 1419.2 0C1391.3 0 1363.7 0 1335.8 0C1308 0 1280 0 1252.2 0C1224.3 0 1196.7 0 1168.8 0C1141 0 1113 0 1085.2 0C1057.3 0 1029.7 0 1001.8 0C974 0 946 0 918.2 0C890.3 0 862.7 0 834.8 0C807 0 779 0 751.2 0C723.3 0 695.7 0 667.8 0C640 0 612 0 584.2 0C556.3 0 528.7 0 500.8 0C473 0 445 0 417.2 0C389.3 0 361.7 0 333.8 0C306 0 278 0 250.2 0C222.3 0 194.7 0 166.8 0C139 0 111 0 83.2 0C55.3 0 27.7 0 13.8 0L0 0Z" fill="#00d6b0"></path><path d="M0 10L13.8 9.8C27.7 9.7 55.3 9.3 83.2 10.8C111 12.3 139 15.7 166.8 14.8C194.7 14 222.3 9 250.2 6.8C278 4.7 306 5.3 333.8 7.3C361.7 9.3 389.3 12.7 417.2 14.3C445 16 473 16 500.8 16C528.7 16 556.3 16 584.2 15.8C612 15.7 640 15.3 667.8 14.8C695.7 14.3 723.3 13.7 751.2 12.5C779 11.3 807 9.7 834.8 8C862.7 6.3 890.3 4.7 918.2 5.7C946 6.7 974 10.3 1001.8 11C1029.7 11.7 1057.3 9.3 1085.2 9.3C1113 9.3 1141 11.7 1168.8 11C1196.7 10.3 1224.3 6.7 1252.2 4.7C1280 2.7 1308 2.3 1335.8 2.5C1363.7 2.7 1391.3 3.3 1419.2 6.3C1447 9.3 1475 14.7 1502.8 14.2C1530.7 13.7 1558.3 7.3 1586.2 6.7C1614 6 1642 11 1669.8 12.7C1697.7 14.3 1725.3 12.7 1753.2 13.7C1781 14.7 1809 18.3 1836.8 16.7C1864.7 15 1892.3 8 1906.2 4.5L1920 1L1920 0L1906.2 0C1892.3 0 1864.7 0 1836.8 0C1809 0 1781 0 1753.2 0C1725.3 0 1697.7 0 1669.8 0C1642 0 1614 0 1586.2 0C1558.3 0 1530.7 0 1502.8 0C1475 0 1447 0 1419.2 0C1391.3 0 1363.7 0 1335.8 0C1308 0 1280 0 1252.2 0C1224.3 0 1196.7 0 1168.8 0C1141 0 1113 0 1085.2 0C1057.3 0 1029.7 0 1001.8 0C974 0 946 0 918.2 0C890.3 0 862.7 0 834.8 0C807 0 779 0 751.2 0C723.3 0 695.7 0 667.8 0C640 0 612 0 584.2 0C556.3 0 528.7 0 500.8 0C473 0 445 0 417.2 0C389.3 0 361.7 0 333.8 0C306 0 278 0 250.2 0C222.3 0 194.7 0 166.8 0C139 0 111 0 83.2 0C55.3 0 27.7 0 13.8 0L0 0Z" fill="#24c7b8"></path></svg>